<svg width="24" height="24" viewBox="0 0 24 24" fill="none" xmlns="http://www.w3.org/2000/svg" class="h-5 w-5 text-neutral-40"><path fill="#444f8e" fill-rule="evenodd" clip-rule="evenodd" d="M20.0883 12.4104C16.8421 5.19655 7.15839 5.19655 3.91217 12.4104C3.68553 12.914 3.09352 13.1386 2.58988 12.9119C2.08624 12.6853 1.86169 12.0933 2.08833 11.5896C6.04211 2.80345 17.9584 2.80345 21.9122 11.5896C22.1388 12.0933 21.9143 12.6853 21.4106 12.9119C20.907 13.1386 20.315 12.914 20.0883 12.4104Z"></path><path fill="#444f8e" fill-rule="evenodd" clip-rule="evenodd" d="M12 12C11.6717 12 11.3466 12.0647 11.0433 12.1903C10.74 12.3159 10.4644 12.5001 10.2322 12.7322C10.0001 12.9644 9.81594 13.24 9.6903 13.5433C9.56466 13.8466 9.5 14.1717 9.5 14.5C9.5 14.8283 9.56466 15.1534 9.6903 15.4567C9.81594 15.76 10.0001 16.0356 10.2322 16.2678C10.4644 16.4999 10.74 16.6841 11.0433 16.8097C11.3466 16.9353 11.6717 17 12 17C12.663 17 13.2989 16.7366 13.7678 16.2678C14.2366 15.7989 14.5 15.163 14.5 14.5C14.5 13.837 14.2366 13.2011 13.7678 12.7322C13.2989 12.2634 12.663 12 12 12ZM10.2779 10.3425C10.8239 10.1164 11.4091 10 12 10C13.1935 10 14.3381 10.4741 15.182 11.318C16.0259 12.1619 16.5 13.3065 16.5 14.5C16.5 15.6935 16.0259 16.8381 15.182 17.682C14.3381 18.5259 13.1935 19 12 19C11.4091 19 10.8239 18.8836 10.2779 18.6575C9.73196 18.4313 9.23588 18.0998 8.81802 17.682C8.40015 17.2641 8.06869 16.768 7.84254 16.2221C7.6164 15.6761 7.5 15.0909 7.5 14.5C7.5 13.9091 7.6164 13.3239 7.84254 12.7779C8.06869 12.232 8.40015 11.7359 8.81802 11.318C9.23588 10.9002 9.73196 10.5687 10.2779 10.3425Z"></path></svg>

